<?xml version="1.0" encoding="UTF-8" standalone="no"?>
<!-- Generator: Adobe Illustrator 16.0.3, SVG Export Plug-In . SVG Version: 6.00 Build 0)  -->

<svg
   xmlns:dc="http://purl.org/dc/elements/1.1/"
   xmlns:cc="http://creativecommons.org/ns#"
   xmlns:rdf="http://www.w3.org/1999/02/22-rdf-syntax-ns#"
   xmlns:svg="http://www.w3.org/2000/svg"
   xmlns="http://www.w3.org/2000/svg"
   xmlns:sodipodi="http://sodipodi.sourceforge.net/DTD/sodipodi-0.dtd"
   xmlns:inkscape="http://www.inkscape.org/namespaces/inkscape"
   version="1.1"
   id="Layer_1"
   x="0px"
   y="0px"
   width="595.279px"
   height="841.89px"
   viewBox="0 0 595.279 841.89"
   enable-background="new 0 0 595.279 841.89"
   xml:space="preserve"
   sodipodi:docname="sign_normal.svg"
   inkscape:version="0.92.3 (2405546, 2018-03-11)"><metadata
   id="metadata5108"><rdf:RDF><cc:Work
       rdf:about=""><dc:format>image/svg+xml</dc:format><dc:type
         rdf:resource="http://purl.org/dc/dcmitype/StillImage" /><dc:title></dc:title></cc:Work></rdf:RDF></metadata><defs
   id="defs5106" /><sodipodi:namedview
   pagecolor="#ffffff"
   bordercolor="#666666"
   borderopacity="1"
   objecttolerance="10"
   gridtolerance="10"
   guidetolerance="10"
   inkscape:pageopacity="0"
   inkscape:pageshadow="2"
   inkscape:window-width="1366"
   inkscape:window-height="705"
   id="namedview5104"
   showgrid="false"
   inkscape:zoom="1.1212866"
   inkscape:cx="251.2779"
   inkscape:cy="431.37852"
   inkscape:window-x="-8"
   inkscape:window-y="-8"
   inkscape:window-maximized="1"
   inkscape:current-layer="Layer_1"
   inkscape:showpageshadow="true"
   showborder="true" />
<path
   d="M73.489,87.843c0-17.158,15.093-31.374,31.296-31.374l385.213-0.075c16.205,0,31.3,14.212,31.3,31.374  v385.714c0,17.16-15.095,31.371-31.3,31.371H104.708c-16.206,0-31.298-14.211-31.298-31.371L73.489,87.843"
   id="path5067"
   fill="#00703C" />
<polyline
   points="348.702,269.397 334.998,339.066 268.479,339.066 252.987,366.714 357.463,366.714   372.905,291.788 430.279,413.448 460.784,413.448 397.526,279.312 424.363,229.412 454.985,263.695 495.283,263.695   495.283,413.688 466.841,442.042 429.662,442.042 452.274,421.466 421.334,421.466 403.164,442.042 251.718,442.042   283.621,414.288 283.621,374.308 239.29,374.308 262.648,331.168 283.621,331.168 283.621,119.205 495.283,119.205 495.283,241.971   464.669,241.971 420.018,191.984 326.133,191.984 295.471,245.444 314.255,256.272 338.669,213.708 378.097,213.708   348.702,269.397 "
   id="polyline5069"
   fill="#FFFFFF" />
<path
   d="M423.054,135.925c-14.356,0-26,11.672-26,26.068s11.644,26.065,26,26.065  c14.361,0,26.003-11.67,26.003-26.065S437.415,135.925,423.054,135.925"
   id="path5071"
   fill="#00703C" />
<path
   d="M99.426,196.985c0,0,35.02-11.012,53.89-71.65c8.831,22.135,16.416,75.796-53.89,112.333  C99.426,236.698,99.426,196.985,99.426,196.985"
   id="path5073"
   fill="#FFFFFF" />
<path
   d="M105.881,260.732c0,0,33.608-6.219,55.831-56.491c6.84-15.468,20.921-55.971,76.514-55.971  c-16.468,12.623-24.718,25.381-35.152,50.79C171.723,275.378,113.276,264.311,105.881,260.732"
   id="path5075"
   fill="#FFFFFF" />
<path
   d="M99.426,294.804c0,0,68.493-6.085,124.585-83.827c0,98.866-121.311,122.172-124.585,122.831  C99.426,330.439,99.426,294.804,99.426,294.804"
   id="path5077"
   fill="#FFFFFF" />
<path
   d="M105.881,360.499c0,0,35.208-3.591,70.313-40.169c32.82-34.203,70.503-21.51,83.227-10.881  c-16.113-1.47-34.721,9.416-58.673,33.429C158.703,385.027,109.763,364.383,105.881,360.499"
   id="path5079"
   fill="#FFFFFF" />
<path
   d="M99.426,387.383c0,0,74.196,11.276,122.771-33.364c1.694-5.095-9.302,74.369-122.771,69.969  C99.426,421.651,99.426,387.383,99.426,387.383"
   id="path5081"
   fill="#FFFFFF" />
<path
   d="M41.1,589.611h518.74c5.479,0,9.92,4.439,9.92,9.92v206.93c0,5.479-4.439,9.92-9.92,9.92H41.1  c-5.479,0-9.92-4.439-9.92-9.92v-206.93C31.18,594.05,35.62,589.611,41.1,589.611"
   id="path5083"
   fill="#00703C" />
<g
   id="g5101">
	<path
   d="M58.938,742.291v-93.771h64.285v15.863H77.872v22.195h39.146v15.863H77.872v39.85H58.938L58.938,742.291z"
   id="path5085"
   fill="#FFFFFF" />
	<path
   d="M138.703,665.15v-16.633h17.974v16.633H138.703z M138.703,742.291v-67.93h17.974v67.93H138.703z"
   id="path5087"
   fill="#FFFFFF" />
	<path
   d="M192.305,742.291h-17.974v-67.93h16.694v9.658c2.856-4.563,5.427-7.568,7.708-9.02   c2.28-1.449,4.871-2.176,7.771-2.176c4.094,0,8.038,1.131,11.833,3.391l-5.565,15.672c-3.027-1.961-5.843-2.941-8.442-2.941   c-2.518,0-4.648,0.691-6.396,2.078c-1.749,1.387-3.125,3.893-4.126,7.516c-1.002,3.625-1.503,11.217-1.503,22.771V742.291   L192.305,742.291z"
   id="path5089"
   fill="#FFFFFF" />
	<path
   d="M265.417,720.669l17.91,3.008c-2.304,6.566-5.939,11.566-10.906,14.998   c-4.968,3.436-11.185,5.15-18.646,5.15c-11.813,0-20.555-3.859-26.226-11.578c-4.479-6.182-6.716-13.986-6.716-23.41   c0-11.258,2.941-20.074,8.827-26.451c5.885-6.373,13.325-9.563,22.323-9.563c10.106,0,18.08,3.338,23.923,10.012   s8.636,16.896,8.38,30.67h-45.031c0.128,5.332,1.577,9.479,4.35,12.441c2.771,2.965,6.227,4.445,10.362,4.445   c2.813,0,5.181-0.768,7.1-2.303S264.436,724.083,265.417,720.669z M266.44,702.503c-0.128-5.201-1.471-9.156-4.029-11.865   c-2.56-2.707-5.673-4.061-9.34-4.061c-3.924,0-7.163,1.428-9.723,4.285c-2.559,2.855-3.817,6.736-3.773,11.641H266.44z"
   id="path5091"
   fill="#FFFFFF" />
	<path
   d="M374.669,720.669l17.909,3.008c-2.303,6.566-5.938,11.566-10.905,14.998   c-4.969,3.436-11.185,5.15-18.646,5.15c-11.813,0-20.555-3.859-26.226-11.578c-4.479-6.182-6.716-13.986-6.716-23.41   c0-11.258,2.94-20.074,8.825-26.451c5.886-6.373,13.326-9.563,22.324-9.563c10.106,0,18.08,3.338,23.923,10.012   s8.637,16.896,8.38,30.67h-45.03c0.127,5.332,1.575,9.479,4.35,12.441c2.771,2.965,6.225,4.445,10.361,4.445   c2.813,0,5.182-0.768,7.101-2.303S373.688,724.083,374.669,720.669z M375.692,702.503c-0.128-5.201-1.472-9.156-4.03-11.865   c-2.558-2.707-5.672-4.061-9.338-4.061c-3.925,0-7.164,1.428-9.723,4.285c-2.56,2.855-3.817,6.736-3.774,11.641H375.692z"
   id="path5093"
   fill="#FFFFFF" />
	<path
   d="M399.551,742.291l24.498-34.988l-23.476-32.941h21.939l12.024,18.678l12.666-18.678h21.107l-23.027,32.176   l25.14,35.756h-22.068l-13.816-21.045l-13.942,21.045h-21.045V742.291z"
   id="path5095"
   fill="#FFFFFF" />
	<path
   d="M481.041,665.15v-16.633h17.976v16.633H481.041z M481.041,742.291v-67.93h17.976v67.93H481.041z"
   id="path5097"
   fill="#FFFFFF" />
	<path
   d="M548.589,674.361v14.328h-12.281v27.377c0,5.543,0.117,8.773,0.352,9.689   c0.234,0.918,0.769,1.674,1.601,2.271c0.831,0.598,1.844,0.895,3.038,0.895c1.663,0,4.07-0.576,7.229-1.727l1.535,13.943   c-4.181,1.791-8.914,2.688-14.201,2.688c-3.241,0-6.162-0.545-8.763-1.631c-2.603-1.088-4.51-2.496-5.726-4.223   c-1.216-1.729-2.059-4.063-2.525-7.006c-0.385-2.088-0.576-6.309-0.576-12.664v-29.615h-8.252v-14.326h8.252v-13.498l18.038-10.49   v23.988H548.589z"
   id="path5099"
   fill="#FFFFFF" />
</g>
</svg>